<svg width="29" height="41" viewBox="0 0 29 41" fill="none" xmlns="http://www.w3.org/2000/svg">
<path d="M10.133 35.4272H19.245M10.067 37.7132H19.18M12.21 39.9992H17.168M27.902 14.2292C27.9048 11.9537 27.3199 9.71597 26.2038 7.73287C25.0878 5.74977 23.4786 4.08851 21.5319 2.91001C19.5853 1.73151 17.3673 1.07572 15.0928 1.00617C12.8184 0.936625 10.5644 1.45567 8.54946 2.51304C6.53447 3.5704 4.82672 5.13023 3.59162 7.04144C2.35653 8.95265 1.63596 11.1504 1.49972 13.4219C1.36348 15.6934 1.81618 17.9616 2.81398 20.0067C3.81178 22.0518 5.32085 23.8046 7.19501 25.0952C7.71923 25.4726 8.14443 25.9712 8.43434 26.5484C8.72426 27.1256 8.8703 27.7644 8.86001 28.4102V33.1412H20.518V28.4062C20.5123 27.754 20.6641 27.11 20.9606 26.529C21.2571 25.9481 21.6895 25.4473 22.221 25.0692C23.9743 23.8568 25.4072 22.237 26.3967 20.349C27.3862 18.4609 27.9027 16.3609 27.902 14.2292Z" stroke="black" stroke-linecap="round" stroke-linejoin="round"/>
</svg>
