<svg width="31" height="35" viewBox="0 0 31 35" fill="none" xmlns="http://www.w3.org/2000/svg">
<path d="M27.1962 25.8521L20.2199 23.4063L5.33103 0.243968C5.27982 0.164336 5.21876 0.10168 5.15154 0.0597853C5.08433 0.0178908 5.01235 -0.00237222 4.93996 0.000220869C4.86767 0.00281482 4.79646 0.028148 4.73063 0.0746935C4.6648 0.121239 4.60571 0.188033 4.55692 0.271052C1.70291 5.12518 0.130585 11.2501 0.130585 17.5001V32.4999C0.130585 33.163 0.299908 33.7989 0.601306 34.2677C0.902704 34.7365 1.31149 34.9999 1.73773 34.9999H6.02344C6.44968 34.9999 6.85846 34.7365 7.15986 34.2677C7.46126 33.7989 7.63058 33.163 7.63058 32.4999V20.9084C11.0057 23.5536 13.6506 28.0112 15.0757 33.4562C15.1966 33.9157 15.4032 34.3083 15.6689 34.5834C15.9346 34.8586 16.2471 35.0036 16.5663 34.9999H28.5234C28.9497 34.9999 29.3585 34.7365 29.6599 34.2677C29.9613 33.7989 30.1306 33.163 30.1306 32.4999V31.5145C30.1324 30.1907 29.842 28.9059 29.3078 27.8752C28.7737 26.8445 28.0283 26.1303 27.1962 25.8521ZM6.55915 32.4999C6.55915 32.721 6.50271 32.9329 6.40225 33.0892C6.30178 33.2455 6.16552 33.3333 6.02344 33.3333H1.73773C1.59565 33.3333 1.45939 33.2455 1.35892 33.0892C1.25845 32.9329 1.20201 32.721 1.20201 32.4999V18.3501C3.04242 18.4453 4.8569 19.0535 6.55915 20.1459V32.4999ZM29.0591 32.4999C29.0591 32.721 29.0027 32.9329 28.9022 33.0892C28.8018 33.2455 28.6655 33.3333 28.5234 33.3333H16.5663C16.4608 33.3347 16.3573 33.2876 16.2689 33.1979C16.1805 33.1083 16.1111 32.9799 16.0694 32.8291C14.8414 28.1246 12.7517 24.0851 10.06 21.2125C7.45186 18.4103 4.37964 16.8371 1.21139 16.6813C1.33594 11.4043 2.65782 6.26475 4.97612 2.0502L19.5743 24.7583C19.6479 24.8713 19.7409 24.9487 19.8422 24.9813L26.9699 27.4812C27.5629 27.6811 28.0939 28.1914 28.4742 28.927C28.8545 29.6626 29.0609 30.5789 29.0591 31.5229V32.4999Z" fill="black"/>
</svg>
