<svg width="31" height="38" viewBox="0 0 31 38" fill="none" xmlns="http://www.w3.org/2000/svg">
<path d="M29.5112 25.4768C28.9357 24.1534 28.0627 22.393 27.3798 22.1167C27.0028 21.7075 26.4203 21.3787 25.7963 21.0359L25.4783 20.8591C25.4868 20.4915 25.4093 20.2255 25.2373 20.0494C24.1853 18.9759 23.1183 17.3887 22.0933 15.6034C22.1208 15.4982 22.1368 15.3842 22.1368 15.2614C22.1368 14.8003 21.9243 14.4268 21.6628 14.4268C21.5873 14.4268 21.5183 14.4363 21.4438 14.4378C21.1448 13.8833 20.8524 13.3213 20.5668 12.7519C20.6158 12.6211 20.6513 12.4728 20.6513 12.3047C20.6513 11.8428 20.4388 11.4694 20.1778 11.4694C20.1533 11.4694 20.0678 11.4702 19.9373 11.4775C19.6041 10.786 19.2762 10.0891 18.9538 9.38673C18.9743 9.29392 18.9878 9.19527 18.9878 9.09077C18.9878 8.62892 18.7758 8.25477 18.5148 8.25477C18.4893 8.25477 18.4663 8.25769 18.4418 8.25769C18.1381 7.58002 17.8369 6.8999 17.5383 6.21738C17.5533 6.13481 17.5678 6.05004 17.5678 5.95942C17.5678 5.49831 17.3548 5.12488 17.0943 5.12488L17.0613 5.12635C15.8433 2.3465 15.6219 1.92704 15.2844 1.92704C15.0614 1.92704 14.8544 1.94896 14.6529 1.97892C14.5769 1.77942 14.4994 1.58577 14.4239 1.38335C14.1884 0.753423 13.6854 0 12.6309 0C11.0334 0 8.84141 1.73412 7.55492 2.89238C6.33543 2.13604 5.29844 1.74435 4.48194 1.74435C3.64845 1.74435 3.26045 2.14115 3.09795 2.38158C3.08795 2.394 3.07595 2.40131 3.06645 2.41592C2.16746 3.85115 1.58897 6.53454 1.21747 9.19235C0.625474 11.9452 0.560975 14.1864 0.570475 15.2197C0.533803 15.2824 0.502256 15.351 0.476475 15.4243C0.130978 16.473 0.201478 20.5427 0.687474 21.4262C1.93396 23.701 3.20945 25.1757 4.55994 26.7374C6.08743 28.5037 7.66642 30.3298 9.5224 33.5854C11.1214 36.3916 14.4504 38 18.6568 38C24.2608 38 30.2612 35.0923 30.2612 30.7654C30.2612 26.0022 29.9097 25.4995 29.5112 25.4768ZM28.9607 26.212C27.8772 28.6681 22.8468 29.9922 18.4178 29.9922C16.9393 29.9922 15.6344 29.8432 14.7419 29.5713C13.5059 29.195 12.3414 28.5723 11.2494 27.8021C12.2749 25.8407 14.1309 25.536 16.0218 25.536C16.7563 25.536 17.5143 25.5842 18.3178 25.6368C19.1383 25.6895 19.9868 25.7435 20.8258 25.7435C22.8508 25.7435 25.4003 25.4498 27.3078 23.207C27.6493 23.5081 28.3277 24.7453 28.9607 26.212ZM23.0138 19.513C23.3033 19.9544 23.5763 20.3731 23.8108 20.7465C24.1313 21.2581 24.8153 21.6344 25.5383 22.0327C25.9123 22.2388 26.2888 22.45 26.5863 22.6641C24.9043 24.4238 22.7458 24.6788 20.8258 24.6788C20.0423 24.6788 19.2443 24.6291 18.4673 24.5787C18.4658 23.4146 18.3498 22.2307 18.1533 21.5058C19.2868 20.5324 20.9163 19.5948 23.0138 19.513ZM20.8328 16.1368C21.2142 16.7453 21.5997 17.3482 21.9893 17.9455C20.0973 18.2575 18.6138 19.1922 17.5558 20.1458C17.1851 19.3818 16.8114 18.6209 16.4348 17.8629C17.4363 17.0532 18.8688 16.3057 20.8328 16.1368ZM19.8863 14.5905C18.0778 14.9187 16.7353 15.7123 15.7749 16.5534C15.4729 15.9556 15.1764 15.3768 14.8874 14.8193C16.3483 13.794 18.0248 13.3935 19.0923 13.2386C19.3623 13.7085 19.6258 14.155 19.8863 14.5905ZM14.2039 13.5185C13.8427 12.8382 13.4768 12.1632 13.1064 11.4935C14.1594 10.8285 15.5784 10.2023 17.3408 9.99985C17.6349 10.575 17.9351 11.1434 18.2413 11.7047C17.0678 11.9525 15.5479 12.4655 14.2039 13.5185ZM18.3263 9.93408C18.5468 10.4164 18.7743 10.906 19.0093 11.4015C18.7443 10.9189 18.4838 10.4312 18.2278 9.93846C18.2608 9.937 18.2928 9.93408 18.3263 9.93408ZM16.9273 6.802C17.1353 7.27627 17.3543 7.77319 17.5863 8.29569C17.5253 8.30008 17.4673 8.31031 17.4068 8.31615C17.1637 7.81905 16.9248 7.31746 16.6903 6.8115C16.7703 6.80858 16.8468 6.80346 16.9273 6.802ZM12.3649 10.1855C12.0189 9.58405 11.6667 8.99035 11.3084 8.40458C12.3884 7.72131 13.8894 7.07238 15.8368 6.86704C16.0798 7.40342 16.3233 7.92592 16.5663 8.43162C14.7939 8.75315 13.3909 9.47004 12.3649 10.1855ZM15.1829 2.99542C15.3599 3.26142 15.7604 4.14565 16.2088 5.16142C16.1248 5.16727 16.0403 5.17238 15.9578 5.17969C15.6465 4.46396 15.3444 3.73963 15.0519 3.00712C15.0964 3.00492 15.1369 2.99688 15.1829 2.99542ZM12.6309 1.06546C13.1959 1.06546 13.5724 1.33658 13.7814 1.89415C14.2107 3.04159 14.6628 4.17062 15.1369 5.27981C13.1089 5.60208 11.5799 6.38692 10.5054 7.15277C9.4534 5.56335 8.56441 4.46646 7.84591 3.88769C9.05091 2.79154 11.1774 1.06546 12.6309 1.06546ZM3.64695 3.08385C3.72395 3.00346 3.96145 2.80908 4.48144 2.80908C4.88444 2.80908 5.52943 2.93696 6.47493 3.42073C5.20594 3.62973 4.50394 5.08542 3.93795 6.28681C3.57395 7.05704 3.23195 7.78415 2.91196 7.809C2.71596 7.44362 3.06595 5.20965 3.64695 3.08385ZM2.16946 7.87842C2.19546 8.08304 2.23946 8.26135 2.30446 8.40312C2.43846 8.69177 2.64646 8.84888 2.89046 8.84888C3.61745 8.84888 4.06595 7.89742 4.54094 6.88896C5.10894 5.68612 5.69543 4.44235 6.78142 4.44235C7.38842 4.44235 8.43841 5.57942 9.8289 7.67161C9.4814 7.96538 9.2139 8.23358 9.01191 8.45208C8.95595 8.42457 8.89743 8.40979 8.83841 8.40823C8.45691 8.40823 8.14791 8.95339 8.14791 9.62569C8.14791 10.298 8.45691 10.8432 8.83841 10.8432C9.1724 10.8432 9.4509 10.4244 9.5149 9.86758C9.86193 9.49996 10.2277 9.17162 10.6089 8.88542C10.976 9.47925 11.3358 10.0825 11.6884 10.6948C11.3677 10.9554 11.0572 11.2421 10.7584 11.5535C10.6992 11.5224 10.6368 11.5058 10.5739 11.5045C10.1929 11.5045 9.8839 12.0489 9.8839 12.722C9.8839 13.395 10.1929 13.9394 10.5739 13.9394C10.9024 13.9394 11.1759 13.5331 11.2459 12.9902C11.6173 12.6083 12.0069 12.2659 12.4119 11.9656C12.7834 12.6299 13.1684 13.3322 13.5649 14.0761C13.1561 14.4705 12.7799 14.9327 12.4439 15.4536C12.4254 15.4507 12.4079 15.4441 12.3889 15.4441C12.0064 15.4441 11.6979 15.9892 11.6979 16.6615C11.6979 17.3331 12.0064 17.879 12.3889 17.879C12.7624 17.879 13.0659 17.3514 13.0759 16.6952C13.417 16.1681 13.8058 15.7116 14.2314 15.3381C14.5339 15.9183 14.8434 16.5183 15.1599 17.1395C14.7944 17.5241 14.4559 17.9608 14.1494 18.4432C14.1339 18.4417 14.1189 18.4351 14.1034 18.4351C13.7229 18.4351 13.4134 18.981 13.4134 19.6533C13.4134 20.3249 13.7229 20.8708 14.1034 20.8708C14.4804 20.8708 14.7844 20.3373 14.7919 19.676C15.0988 19.2068 15.4392 18.7872 15.8073 18.4242C16.191 19.1926 16.5712 19.9648 16.9478 20.7407C16.6053 21.0983 16.2802 21.4902 15.9748 21.9136C15.9428 21.9055 15.9113 21.8968 15.8788 21.8968C15.4969 21.8968 15.1884 22.4427 15.1884 23.1142C15.1884 23.7865 15.4969 24.3317 15.8788 24.3317C16.2358 24.3317 16.5273 23.8487 16.5613 23.2319C16.8665 22.8148 17.1922 22.4311 17.5358 22.0838C17.6813 22.686 17.7433 23.6272 17.7403 24.5348C17.1682 24.4962 16.5956 24.4745 16.0228 24.4698C13.8749 24.4698 11.7614 24.8476 10.5844 27.3118C7.45642 24.8659 5.00244 21.242 3.39495 18.5849C3.43095 16.2143 3.02995 14.733 2.62846 13.3161C2.29346 12.1308 1.97746 11.0083 1.94346 9.36115C2.01096 8.8635 2.08546 8.36512 2.16946 7.87842ZM1.95096 13.7217C2.25746 14.8039 2.54646 15.8592 2.63996 17.3112C2.50746 17.0825 2.38346 16.8669 2.26946 16.6681C1.76396 15.7897 1.49697 15.3337 1.30197 15.1087C1.3044 14.0554 1.371 13.0045 1.50097 11.9685C1.63197 12.5963 1.79296 13.1641 1.95096 13.7217ZM18.6568 36.9345C14.6684 36.9345 11.5449 35.4657 10.0854 32.9058C8.18091 29.564 6.49893 27.6194 5.01494 25.9028C3.69795 24.3807 2.45446 22.9418 1.25897 20.7626C1.01497 20.2905 0.915472 17.3792 1.05947 16.2479C1.23247 16.5263 1.47297 16.9436 1.70797 17.3528C3.65545 20.7407 8.21641 28.6725 14.5929 30.6141C15.5324 30.8998 16.8913 31.057 18.4178 31.057C21.8438 31.057 27.6588 30.2056 29.4052 27.1466C29.4677 27.7517 29.5292 28.8369 29.5292 30.7639C29.5292 33.9939 24.3468 36.9345 18.6568 36.9345Z" fill="black"/>
</svg>
