<svg width="30" height="40" viewBox="0 0 30 40" fill="none" xmlns="http://www.w3.org/2000/svg">
<path d="M30 20C29.9993 17.7412 29.4186 15.5158 28.3073 13.5121C27.1959 11.5085 25.5865 9.78545 23.6153 8.48889L22.3285 1.82222C22.2287 1.31054 21.9407 0.847921 21.5148 0.514945C21.0889 0.181969 20.552 -0.000259828 19.9976 2.78063e-07H10.0031C9.44814 -0.000102057 8.91077 0.182652 8.48477 0.516367C8.05877 0.850082 7.77119 1.31357 7.67223 1.82593L6.38541 8.49259C4.41344 9.78853 2.80346 11.5114 1.69191 13.5152C0.580364 15.519 0 17.7447 0 20.0037C0 22.2627 0.580364 24.4884 1.69191 26.4922C2.80346 28.496 4.41344 30.2189 6.38541 31.5148L7.67223 38.1815C7.77284 38.6925 8.06112 39.1542 8.48697 39.4865C8.91281 39.8187 9.44927 40.0004 10.0031 40H19.9976C20.5526 40.0001 21.0899 39.8173 21.5159 39.4836C21.9419 39.1499 22.2295 38.6864 22.3285 38.1741L23.6153 31.5074C25.586 30.2112 27.195 28.4888 28.3064 26.4858C29.4177 24.4828 29.9986 22.2582 30 20ZM9.22548 2.09074C9.25835 1.91974 9.35425 1.76502 9.4964 1.65364C9.63855 1.54227 9.8179 1.48133 10.0031 1.48148H19.9976C20.1828 1.48133 20.3621 1.54227 20.5043 1.65364C20.6464 1.76502 20.7423 1.91974 20.7752 2.09074L21.8133 7.46111C19.7059 6.44847 17.372 5.92038 15.0043 5.92038C12.6366 5.92038 10.3027 6.44847 8.19524 7.46111L9.22548 2.09074ZM20.7752 37.9093C20.7423 38.0803 20.6464 38.235 20.5043 38.3464C20.3621 38.4577 20.1828 38.5187 19.9976 38.5185H10.0031C9.8179 38.5187 9.63855 38.4577 9.4964 38.3464C9.35425 38.235 9.25835 38.0803 9.22548 37.9093L8.18735 32.5389C10.2948 33.5515 12.6287 34.0796 14.9964 34.0796C17.3641 34.0796 19.698 33.5515 21.8055 32.5389L20.7752 37.9093ZM15.0003 32.5926C12.346 32.5926 9.75121 31.854 7.54418 30.4704C5.33715 29.0867 3.61698 27.12 2.6012 24.819C1.58541 22.518 1.31964 19.986 1.83748 17.5433C2.35532 15.1006 3.63352 12.8568 5.51045 11.0957C7.38737 9.33459 9.77872 8.13526 12.3821 7.64937C14.9855 7.16348 17.6839 7.41286 20.1362 8.36596C22.5886 9.31907 24.6846 10.9331 26.1593 13.0039C27.634 15.0748 28.4211 17.5094 28.4211 20C28.4174 23.3387 27.0023 26.5397 24.4862 28.9005C21.9701 31.2613 18.5586 32.5892 15.0003 32.5926ZM23.6844 20C23.6844 20.1965 23.6012 20.3849 23.4531 20.5238C23.3051 20.6627 23.1043 20.7407 22.8949 20.7407H15.0003C14.791 20.7407 14.5902 20.6627 14.4421 20.5238C14.2941 20.3849 14.2109 20.1965 14.2109 20V12.5926C14.2109 12.3961 14.2941 12.2077 14.4421 12.0688C14.5902 11.9299 14.791 11.8519 15.0003 11.8519C15.2097 11.8519 15.4105 11.9299 15.5586 12.0688C15.7066 12.2077 15.7898 12.3961 15.7898 12.5926V19.2593H22.8949C23.1043 19.2593 23.3051 19.3373 23.4531 19.4762C23.6012 19.6151 23.6844 19.8035 23.6844 20Z" fill="black"/>
</svg>
